<?xml version="1.0" encoding="utf-8"?>
<!-- Generator: Adobe Illustrator 27.0.0, SVG Export Plug-In . SVG Version: 6.00 Build 0)  -->
<svg version="1.1" id="Layer_1" xmlns="http://www.w3.org/2000/svg" xmlns:xlink="http://www.w3.org/1999/xlink" x="0px" y="0px"
	 viewBox="0 0 174 32" style="enable-background:new 0 0 174 32;" xml:space="preserve">
<g>
	<path d="M101.5,1.4c0,3.7,0,7.2,0,10.8c-8.1,0-16.2,0-24.3,0c0,6.2,0,12.2,0,18.4c-1.6,0-3.1,0-4.7,0c0-0.1,0-0.3,0-0.5
		c-0.1-9.3-0.1-18.6-0.1-28c0-0.7,0-0.7,0.7-0.7c9.2,0,18.4,0,27.6,0C101.1,1.4,101.2,1.4,101.5,1.4z M96.7,6.1c-6.6,0-13,0-19.5,0
		c0,0.5,0,1,0,1.5c6.5,0,13,0,19.5,0C96.7,7,96.7,6.5,96.7,6.1z"/>
	<path d="M78.5,30.6c0-1.6,0-3.1,0-4.7c6,0,12,0,18.2,0c0-0.5,0-1,0-1.6c-6,0-12,0-18.2,0c0-3.6,0-7.1,0-10.7c7.7,0,15.2,0,22.9,0
		c0,1.6,0,3,0,4.7c-6,0-12.1,0-18.2,0c0,0.5,0,0.9,0,1.5c6,0,12,0,18.2,0c0,3.7,0,7.2,0,10.9C93.8,30.6,86.2,30.6,78.5,30.6z"/>
</g>
</svg>
