<?xml version="1.0" encoding="utf-8"?>
<!-- Generator: Adobe Illustrator 27.0.0, SVG Export Plug-In . SVG Version: 6.00 Build 0)  -->
<svg version="1.1" id="Layer_1" xmlns="http://www.w3.org/2000/svg" xmlns:xlink="http://www.w3.org/1999/xlink" x="0px" y="0px"
	 viewBox="0 0 174 32" style="enable-background:new 0 0 174 32;" xml:space="preserve">
<style type="text/css">
	.st0{fill:#FEFEFE;}
</style>
<g>
	<path class="st0" d="M17.2,17.9h-2v4.8h-3.3V9.3h5.3c3.3,0,4.9,1.9,4.9,4.3C22.2,15.9,20.7,17.9,17.2,17.9z M17,15.3
		c1.3,0,1.9-0.7,1.9-1.7s-0.6-1.7-1.9-1.7h-1.8v3.4H17z"/>
	<path class="st0" d="M23.9,9.3h3.3v13.5h-3.3V9.3z"/>
	<path class="st0" d="M35,18.6l-2.4,4.1h-3.7l4.3-6.8l-4.4-6.6h3.8l2.7,4.1l2.4-4.1h3.7l-4.3,6.8l4.4,6.7h-3.8L35,18.6z"/>
	<path class="st0" d="M51.5,11.9h-5v2.7h4.4v2.5h-4.4v3h5v2.6h-8.2V9.3h8.2V11.9z"/>
	<path class="st0" d="M56.9,9.3v10.9h4.3v2.5h-7.6V9.3H56.9z"/>
	<path class="st0" d="M71.7,22.9c-2.9,0-5.2-1.4-5.3-4.2h3.5c0.1,1,0.7,1.5,1.7,1.5c1,0,1.6-0.5,1.6-1.3c0-2.5-6.7-1.2-6.7-5.9
		c0-2.5,2.1-4,4.9-4c2.9,0,4.9,1.5,5,4h-3.5c-0.1-0.9-0.7-1.4-1.6-1.4c-0.8,0-1.4,0.4-1.4,1.2c0,2.3,6.7,1.3,6.7,5.8
		C76.6,21,74.8,22.9,71.7,22.9z"/>
	<path class="st0" d="M84.8,9.1c3.2,0,5.6,1.8,6.4,4.7h-3.6c-0.6-1.1-1.6-1.7-2.8-1.7c-2,0-3.4,1.5-3.4,3.9s1.4,3.9,3.4,3.9
		c1.2,0,2.3-0.6,2.8-1.7h3.6c-0.8,2.9-3.2,4.7-6.4,4.7c-4,0-6.8-2.8-6.8-6.8S80.8,9.1,84.8,9.1z"/>
	<path class="st0" d="M93.2,9.3h3.3v13.5h-3.3V9.3z"/>
	<path class="st0" d="M107.1,11.9h-5v2.7h4.4v2.5h-4.4v3h5v2.6h-8.2V9.3h8.2V11.9z"/>
	<path class="st0" d="M121.3,9.3v13.5H118l-5.5-8.3v8.3h-3.3V9.3h3.3l5.5,8.3V9.3H121.3z"/>
	<path class="st0" d="M122.9,9.3h10.4v2.6h-3.6v10.8h-3.3V11.9h-3.6V9.3z"/>
	<path class="st0" d="M135,9.3h3.3v13.5H135V9.3z"/>
	<path class="st0" d="M145.5,22.9c-2.9,0-5.2-1.4-5.3-4.2h3.5c0.1,1,0.7,1.5,1.7,1.5c1,0,1.6-0.5,1.6-1.3c0-2.5-6.7-1.2-6.7-5.9
		c0-2.5,2.1-4,4.9-4c2.9,0,4.9,1.5,5,4h-3.5c-0.1-0.9-0.7-1.4-1.6-1.4c-0.8,0-1.4,0.4-1.4,1.2c0,2.3,6.7,1.3,6.7,5.8
		C150.4,21,148.6,22.9,145.5,22.9z"/>
	<path class="st0" d="M151.7,9.3h10.4v2.6h-3.6v10.8h-3.3V11.9h-3.6V9.3z"/>
</g>
</svg>
