<?xml version="1.0" encoding="utf-8"?>
<!-- Generator: Adobe Illustrator 27.0.0, SVG Export Plug-In . SVG Version: 6.00 Build 0)  -->
<svg version="1.1" id="Layer_1" xmlns="http://www.w3.org/2000/svg" xmlns:xlink="http://www.w3.org/1999/xlink" x="0px" y="0px"
	 viewBox="0 0 68 46" style="enable-background:new 0 0 68 46;" xml:space="preserve">
<style type="text/css">
	.st0{fill:#FFFFFF;}
</style>
<g>
	<path class="st0" d="M51.9,5c0,4.5,0,8.9,0,13.3c-10,0-20,0-30,0c0,7.7,0,15.1,0,22.7c-1.9,0-3.8,0-5.7,0c0-0.1,0-0.3,0-0.6
		c-0.1-11.4-0.1-23-0.1-34.6c0-0.9,0-0.9,0.9-0.9c11.4,0,22.7,0,34,0C51.3,5,51.6,5,51.9,5z M46,10.7c-8.1,0-16.1,0-24.1,0
		c0,0.7,0,1.3,0,1.8c8,0,16.1,0,24.1,0C46,11.9,46,11.3,46,10.7z"/>
	<path class="st0" d="M23.6,41.1c0-1.9,0-3.8,0-5.9c7.4,0,14.9,0,22.4,0c0-0.7,0-1.3,0-1.9c-7.4,0-14.9,0-22.4,0c0-4.4,0-8.8,0-13.2
		c9.4,0,18.8,0,28.3,0c0,1.9,0,3.7,0,5.7c-7.4,0-15,0-22.4,0c0,0.6,0,1.1,0,1.8c7.4,0,14.9,0,22.4,0c0,4.5,0,8.9,0,13.4
		C42.5,41.1,33,41.1,23.6,41.1z"/>
</g>
</svg>
