<?xml version="1.0" encoding="utf-8"?>
<!-- Generator: Adobe Illustrator 27.0.0, SVG Export Plug-In . SVG Version: 6.00 Build 0)  -->
<svg version="1.1" id="Layer_1" xmlns="http://www.w3.org/2000/svg" xmlns:xlink="http://www.w3.org/1999/xlink" x="0px" y="0px"
	 viewBox="0 0 944 944" style="enable-background:new 0 0 944 944;" xml:space="preserve">
<g>
	<path d="M899.3,42.7c0,108.6,0,213.1,0,317.7c-239.3,0-476.5,0-715.8,0c0,183,0,359.9,0,542.9c-46.2,0-90.5,0-136.7,0
		c0-2,0-8,0-14.1c-2-273.4-2-548.9-2-826.4c0-22.1,0-22.1,22.1-22.1c271.4,0,542.9,0,812.3,0C885.2,42.7,891.2,42.7,899.3,42.7z
		 M756.5,179.5c-193,0-384,0-575,0c0,16.1,0,30.2,0,42.2c191,0,384,0,575,0C756.5,207.6,756.5,193.5,756.5,179.5z"/>
	<path d="M221.7,903.3c0-46.2,0-90.5,0-140.7c176.9,0,355.9,0,534.8,0c0-16.1,0-30.2,0-46.2c-176.9,0-355.9,0-534.8,0
		c0-104.6,0-209.1,0-315.7c225.2,0,448.4,0,675.6,0c0,46.2,0,88.5,0,136.7c-176.9,0-357.9,0-534.8,0c0,14.1,0,26.1,0,42.2
		c176.9,0,355.9,0,534.8,0c0,108.6,0,213.1,0,319.7C672.1,903.3,446.9,903.3,221.7,903.3z"/>
</g>
</svg>
