<?xml version="1.0" encoding="utf-8"?>
<!-- Generator: Adobe Illustrator 27.0.0, SVG Export Plug-In . SVG Version: 6.00 Build 0)  -->
<svg version="1.1" id="Layer_1" xmlns="http://www.w3.org/2000/svg" xmlns:xlink="http://www.w3.org/1999/xlink" x="0px" y="0px"
	 viewBox="0 0 150 150" style="enable-background:new 0 0 150 150;" xml:space="preserve">
<g>
	<g>
		<g>
			<path d="M118.5,31.3c0,10.9,0,21.6,0,32.3c-24.3,0-48.4,0-72.7,0c0,18.6,0,36.6,0,55.2c-4.6,0-9.3,0-13.9,0c0-0.3,0-0.8,0-1.4
				c-0.3-27.9-0.3-55.8-0.3-83.9c0-2.2,0-2.2,2.2-2.2c27.6,0,55.2,0,82.6,0C117.1,31.3,117.7,31.3,118.5,31.3z M104,45.2
				c-19.7,0-39.1,0-58.5,0c0,1.6,0,3,0,4.4c19.4,0,39.1,0,58.5,0C104,47.9,104,46.6,104,45.2z"/>
			<path d="M49.6,118.7c0-4.6,0-9.3,0-14.2c18,0,36.1,0,54.4,0c0-1.6,0-3,0-4.6c-18,0-36.1,0-54.4,0c0-10.7,0-21.3,0-32
				c23,0,45.7,0,68.6,0c0,4.6,0,9,0,13.9c-18,0-36.4,0-54.4,0c0,1.4,0,2.7,0,4.4c18,0,36.1,0,54.4,0c0,10.9,0,21.6,0,32.5
				C95.5,118.7,72.5,118.7,49.6,118.7z"/>
		</g>
	</g>
</g>
</svg>
