<?xml version="1.0" encoding="utf-8"?>
<!-- Generator: Adobe Illustrator 27.0.0, SVG Export Plug-In . SVG Version: 6.00 Build 0)  -->
<svg version="1.1" id="Layer_1" xmlns="http://www.w3.org/2000/svg" xmlns:xlink="http://www.w3.org/1999/xlink" x="0px" y="0px"
	 viewBox="0 0 150 150" style="enable-background:new 0 0 150 150;" xml:space="preserve">
<style type="text/css">
	.st0{fill:#111029;}
</style>
<g>
	<g>
		<g>
			<path class="st0" d="M96.8,53c0,5.5,0,10.9,0,16.2c-12.2,0-24.4,0-36.6,0c0,9.3,0,18.4,0,27.8c-2.3,0-4.7,0-7,0
				c0-0.1,0-0.4,0-0.7c-0.1-14-0.1-28-0.1-42.2c0-1.1,0-1.1,1.1-1.1c13.9,0,27.8,0,41.5,0C96.1,53,96.4,53,96.8,53z M89.5,60.1
				c-9.9,0-19.7,0-29.4,0c0,0.8,0,1.5,0,2.2c9.7,0,19.7,0,29.4,0C89.5,61.4,89.5,60.7,89.5,60.1z"/>
			<path class="st0" d="M62.2,97c0-2.3,0-4.7,0-7.1c9.1,0,18.1,0,27.4,0c0-0.8,0-1.5,0-2.3c-9.1,0-18.1,0-27.4,0
				c0-5.3,0-10.7,0-16.1c11.5,0,23,0,34.5,0c0,2.3,0,4.5,0,7c-9.1,0-18.3,0-27.4,0c0,0.7,0,1.4,0,2.2c9.1,0,18.1,0,27.4,0
				c0,5.5,0,10.9,0,16.3C85.3,97,73.7,97,62.2,97z"/>
		</g>
	</g>
</g>
</svg>
