<?xml version="1.0" encoding="utf-8"?>
<!-- Generator: Adobe Illustrator 27.0.0, SVG Export Plug-In . SVG Version: 6.00 Build 0)  -->
<svg version="1.1" id="Layer_1" xmlns="http://www.w3.org/2000/svg" xmlns:xlink="http://www.w3.org/1999/xlink" x="0px" y="0px"
	 viewBox="0 0 174 32" style="enable-background:new 0 0 174 32;" xml:space="preserve">
<g>
	<g>
		<path d="M37.6,0c0,4,0,7.9,0,11.8c-8.9,0-17.7,0-26.6,0c0,6.8,0,13.4,0,20.2c-1.7,0-3.4,0-5.1,0c0-0.1,0-0.3,0-0.5
			C5.8,21.3,5.8,11.1,5.8,0.8C5.8,0,5.8,0,6.6,0c10.1,0,20.2,0,30.2,0C37.1,0,37.3,0,37.6,0z M32.3,5.1c-7.2,0-14.3,0-21.4,0
			c0,0.6,0,1.1,0,1.6c7.1,0,14.3,0,21.4,0C32.3,6.1,32.3,5.6,32.3,5.1z"/>
		<path d="M12.4,32c0-1.7,0-3.4,0-5.2c6.6,0,13.2,0,19.9,0c0-0.6,0-1.1,0-1.7c-6.6,0-13.2,0-19.9,0c0-3.9,0-7.8,0-11.7
			c8.4,0,16.7,0,25.1,0c0,1.7,0,3.3,0,5.1c-6.6,0-13.3,0-19.9,0c0,0.5,0,1,0,1.6c6.6,0,13.2,0,19.9,0c0,4,0,7.9,0,11.9
			C29.2,32,20.8,32,12.4,32z"/>
	</g>
	<g>
		<path d="M49.1,9.1h2.4v13.8h-2.4V9.1z M57.1,18.1c0.7,0,1.4,0,2.1-0.1c0.7,0,1.4-0.1,2.1-0.2c0.7-0.1,1.3-0.3,1.8-0.5
			c0.6-0.2,1.1-0.5,1.5-1c0.4-0.4,0.7-0.9,1-1.6c0.2-0.6,0.4-1.4,0.4-2.3c0-0.3,0-0.6-0.1-0.9s-0.2-0.6-0.3-0.9
			c-0.1-0.3-0.2-0.6-0.3-0.8c-0.1-0.3-0.1-0.6-0.1-0.8h2.7v13.8H57.1V18.1z M57.2,11h2.6c0.2,0,0.4,0.1,0.5,0.2
			c0.1,0.1,0.2,0.3,0.3,0.4c0.1,0.2,0.1,0.3,0.1,0.5c0,0.2,0,0.4,0,0.5s0,0.3,0,0.5c0,0.2-0.1,0.4-0.1,0.5c-0.1,0.2-0.2,0.3-0.3,0.4
			c-0.1,0.1-0.3,0.2-0.5,0.2h-2.6V11z"/>
		<path d="M67.9,9.1h3.4c-0.1,0.3-0.3,0.5-0.4,0.8c-0.1,0.2-0.2,0.5-0.3,0.7c-0.1,0.2-0.1,0.5-0.2,0.7c0,0.2-0.1,0.5-0.1,0.8
			c0,0.7,0.1,1.4,0.4,1.9c0.3,0.5,0.6,1,1.1,1.3c0.4,0.4,1,0.7,1.5,0.9c0.6,0.2,1.2,0.5,1.8,0.7c0.6,0.2,1.2,0.4,1.8,0.5
			c0.6,0.2,1.1,0.3,1.5,0.5c0.4,0.2,0.8,0.4,1.1,0.6c0.3,0.2,0.4,0.5,0.4,0.9c0,0.3-0.1,0.6-0.2,0.8c-0.1,0.2-0.3,0.4-0.5,0.6
			c-0.2,0.1-0.5,0.3-0.7,0.3c-0.3,0.1-0.5,0.1-0.8,0.1c-0.4,0-0.8-0.1-1.1-0.2c-0.3-0.1-0.6-0.3-0.9-0.6c-0.2-0.2-0.4-0.5-0.6-0.8
			c-0.2-0.3-0.3-0.7-0.4-1h-0.3c-0.2,0-0.3,0-0.5,0c-0.2,0-0.3,0-0.5,0h-0.3h-3.1c0,0,0,0.1,0,0.2c0,0.1,0,0.2,0,0.3v0.3
			c0,0.3,0,0.6,0.1,0.9c0.1,0.3,0.2,0.6,0.3,0.9c0.1,0.3,0.3,0.6,0.5,0.8c0.2,0.3,0.3,0.5,0.5,0.8h-3.3V9.1z M84.8,18.9
			c0-0.8-0.1-1.5-0.4-2.1c-0.3-0.6-0.7-1.1-1.1-1.5c-0.5-0.4-1-0.7-1.6-1c-0.6-0.3-1.2-0.5-1.8-0.7c-0.6-0.2-1.2-0.3-1.8-0.5
			s-1.1-0.3-1.6-0.4c-0.5-0.1-0.8-0.3-1.1-0.5C75.2,12,75,11.8,75,11.5c0-0.2,0.1-0.4,0.2-0.6c0.1-0.2,0.3-0.3,0.5-0.4
			c0.2-0.1,0.4-0.2,0.6-0.2c0.2,0,0.4-0.1,0.6-0.1c0.4,0,0.7,0,0.9,0.1c0.3,0.1,0.5,0.2,0.7,0.4c0.2,0.2,0.4,0.4,0.5,0.6
			c0.2,0.2,0.3,0.5,0.5,0.8h4.1h0.7c0-0.2,0-0.3,0-0.3c0-0.2,0-0.4-0.1-0.7c-0.1-0.3-0.2-0.5-0.3-0.8c-0.1-0.3-0.2-0.5-0.3-0.7
			c-0.1-0.2-0.2-0.4-0.3-0.6h3.1v13.8h-3.3c0.6-0.6,1-1.2,1.3-1.9C84.7,20.4,84.8,19.7,84.8,18.9z"/>
		<path d="M91.5,9.1h2.4v13.8h-2.4V9.1z M107.4,20.2h-8V9.1h10.2v13.8h-2.3V20.2z"/>
		<path d="M109.6,9.1h6.4l-5.2,13.8h-1.2V9.1z M122.9,22.9h-6.7c0-0.1,0-0.2,0-0.3c0-0.1,0-0.3,0.1-0.4c0-0.1,0.1-0.3,0.2-0.3
			c0.1-0.1,0.1-0.1,0.2-0.1h5.5c0.1,0,0.2,0.1,0.3,0.2c0.1,0.1,0.2,0.2,0.2,0.4c0.1,0.1,0.1,0.3,0.2,0.4
			C122.9,22.8,122.9,22.9,122.9,22.9z M117.8,17.7l1.6-5.2l0.4,0l1.6,5.2H117.8z M123.3,9.1h6.8v13.8h-1.7L123.3,9.1z"/>
		<path d="M130.1,9.1h1.9v13.8h-1.9V9.1z M137.5,11h3.3c0.2,0,0.3,0.1,0.4,0.2c0.1,0.1,0.2,0.2,0.3,0.4c0.1,0.1,0.1,0.3,0.2,0.5
			c0,0.2,0.1,0.3,0.1,0.4c0,0.1,0,0.3,0,0.4c0,0.2-0.1,0.3-0.2,0.5c-0.1,0.1-0.2,0.3-0.3,0.4c-0.1,0.1-0.3,0.2-0.5,0.2h-3.3V11z
			 M137.5,17.7l0.2-0.2c0,0,0.1,0,0.4,0c0.2,0,0.4,0,0.6,0h0.4c0.3,0,0.7,0,1.1,0c0.4,0,0.8,0,1.1,0.1c0.3,0.1,0.6,0.3,0.9,0.5
			c0.2,0.2,0.3,0.6,0.3,1.1c0,0.1,0,0.3-0.1,0.4c-0.1,0.2-0.2,0.3-0.3,0.5s-0.2,0.3-0.4,0.4c-0.1,0.1-0.3,0.2-0.4,0.2h-3.8V17.7z
			 M147.7,19.4c0-0.5-0.1-1-0.2-1.4c-0.2-0.4-0.4-0.8-0.6-1.1c-0.3-0.3-0.6-0.6-1-0.9c-0.4-0.3-0.8-0.5-1.3-0.7
			c0.3-0.2,0.7-0.4,0.9-0.6c0.3-0.3,0.5-0.5,0.8-0.9c0.2-0.3,0.4-0.7,0.5-1c0.1-0.4,0.2-0.7,0.2-1.1c0-0.9-0.2-1.7-0.7-2.5h3.3v13.8
			h-3.1c0.2-0.3,0.3-0.6,0.5-0.8c0.1-0.3,0.3-0.5,0.4-0.8c0.1-0.3,0.2-0.6,0.2-0.8C147.7,20.1,147.7,19.8,147.7,19.4z"/>
		<path d="M149.6,9.1h3.4c-0.1,0.3-0.3,0.5-0.4,0.8c-0.1,0.2-0.2,0.5-0.3,0.7c-0.1,0.2-0.2,0.5-0.2,0.7c0,0.2-0.1,0.5-0.1,0.8
			c0,0.7,0.1,1.4,0.4,1.9c0.3,0.5,0.6,1,1.1,1.3c0.4,0.4,1,0.7,1.5,0.9c0.6,0.2,1.2,0.5,1.8,0.7c0.6,0.2,1.2,0.4,1.8,0.5
			c0.6,0.2,1.1,0.3,1.5,0.5c0.4,0.2,0.8,0.4,1.1,0.6c0.3,0.2,0.4,0.5,0.4,0.9c0,0.3-0.1,0.6-0.2,0.8c-0.1,0.2-0.3,0.4-0.5,0.6
			c-0.2,0.1-0.5,0.3-0.7,0.3s-0.5,0.1-0.8,0.1c-0.4,0-0.8-0.1-1.1-0.2c-0.3-0.1-0.6-0.3-0.9-0.6c-0.2-0.2-0.4-0.5-0.6-0.8
			c-0.2-0.3-0.3-0.7-0.4-1H156c-0.2,0-0.3,0-0.5,0c-0.2,0-0.3,0-0.5,0h-0.3h-3.1c0,0,0,0.1,0,0.2c0,0.1,0,0.2,0,0.3v0.3
			c0,0.3,0,0.6,0.1,0.9c0.1,0.3,0.2,0.6,0.3,0.9c0.1,0.3,0.3,0.6,0.5,0.8c0.2,0.3,0.3,0.5,0.5,0.8h-3.3V9.1z M166.6,18.9
			c0-0.8-0.1-1.5-0.4-2.1c-0.3-0.6-0.6-1.1-1.1-1.5c-0.5-0.4-1-0.7-1.6-1c-0.6-0.3-1.2-0.5-1.8-0.7c-0.6-0.2-1.2-0.3-1.8-0.5
			c-0.6-0.1-1.1-0.3-1.6-0.4c-0.5-0.1-0.8-0.3-1.1-0.5c-0.3-0.2-0.4-0.4-0.4-0.7c0-0.2,0.1-0.4,0.2-0.6c0.1-0.2,0.3-0.3,0.5-0.4
			c0.2-0.1,0.4-0.2,0.6-0.2c0.2,0,0.4-0.1,0.6-0.1c0.4,0,0.7,0,0.9,0.1c0.3,0.1,0.5,0.2,0.7,0.4c0.2,0.2,0.4,0.4,0.5,0.6
			c0.2,0.2,0.3,0.5,0.5,0.8h4.1h0.7c0-0.2,0-0.3,0-0.3c0-0.2,0-0.4-0.1-0.7c-0.1-0.3-0.2-0.5-0.3-0.8c-0.1-0.3-0.2-0.5-0.3-0.7
			c-0.1-0.2-0.2-0.4-0.3-0.6h3.1v13.8h-3.3c0.6-0.6,1-1.2,1.3-1.9C166.4,20.4,166.6,19.7,166.6,18.9z"/>
	</g>
</g>
</svg>
