<?xml version="1.0" encoding="utf-8"?>
<!-- Generator: Adobe Illustrator 27.0.0, SVG Export Plug-In . SVG Version: 6.00 Build 0)  -->
<svg version="1.1" id="Layer_1" xmlns="http://www.w3.org/2000/svg" xmlns:xlink="http://www.w3.org/1999/xlink" x="0px" y="0px"
	 viewBox="0 0 174 32" style="enable-background:new 0 0 174 32;" xml:space="preserve">
<style type="text/css">
	.st0{fill:#FFFFFF;}
</style>
<g>
	<g>
		<path class="st0" d="M26.5,13.3c0,3.3-1.2,6.1-3.5,8.4c-2.3,2.3-5.1,3.5-8.4,3.5h-3.1v0.5c0,1.3-0.5,2.5-1.4,3.4S8,30.5,6.7,30.5
			c-1.3,0-2.5-0.5-3.5-1.4S1.7,27,1.7,25.7V6.3c0-1.4,0.5-2.5,1.5-3.5c1-0.9,2.1-1.4,3.5-1.4h8c3.3,0,6.1,1.2,8.4,3.5
			C25.4,7.2,26.5,10,26.5,13.3z M5.8,5.3c0-0.7-0.4-1.1-1.2-1.1C4.3,4.2,4,4.3,3.7,4.5C3.5,4.7,3.4,5,3.4,5.3c0,0.3,0.1,0.6,0.4,0.8
			s0.5,0.4,0.9,0.4c0.3,0,0.6-0.1,0.8-0.4C5.7,5.9,5.8,5.6,5.8,5.3z M5.8,25.3V8.2C5.8,7.4,5.4,7,4.6,7C3.8,7,3.4,7.4,3.4,8.2v17.2
			c0,0.8,0.4,1.2,1.2,1.2C5.4,26.5,5.8,26.1,5.8,25.3z"/>
		<path class="st0" d="M50,20.4c0,2.8-1,5.2-2.9,7.1c-2,2-4.3,3-7.1,3h-5.3c-1.4,0-2.5-0.5-3.4-1.4c-0.9-1-1.4-2.1-1.4-3.4
			c0-1.4,0.5-2.5,1.4-3.5c0.9-0.9,2-1.4,3.4-1.4h1.6c-1.9-0.7-3.4-1.8-4.6-3.5c-1.2-1.7-1.8-3.6-1.8-5.7c0-2.8,1-5.1,3-7.1
			c2-2,4.3-3,7.1-3h4c1.4,0,2.5,0.5,3.5,1.4s1.4,2.1,1.4,3.5c0,1.3-0.5,2.5-1.4,3.4s-2.1,1.4-3.5,1.4h-1.4c2.2,0.6,3.9,1.7,5.3,3.3
			C49.3,16.3,50,18.2,50,20.4z M38.1,16.9c-1.3-0.2-2.3-0.7-3.1-1.6c-0.8-0.9-1.2-2.1-1.2-3.4c0-0.9,0.2-1.8,0.7-2.6
			c0.1-0.2,0.2-0.4,0.2-0.6c0-0.3-0.1-0.6-0.4-0.8c-0.2-0.2-0.5-0.3-0.8-0.3c-0.4,0-0.8,0.2-1,0.6c-0.7,1.2-1,2.4-1,3.7
			c0,1.8,0.6,3.5,1.8,4.8c1.2,1.4,2.7,2.2,4.5,2.4c0.8,0.1,1.3-0.3,1.3-1.2C39.1,17.4,38.7,17,38.1,16.9z M33.7,25.7
			c0-0.8-0.4-1.2-1.1-1.2c-0.7,0-1.1,0.4-1.1,1.2s0.4,1.2,1.1,1.2C33.3,26.9,33.7,26.5,33.7,25.7z M36.2,6.6c0-0.8-0.4-1.2-1.2-1.2
			c-0.8,0-1.2,0.4-1.2,1.2c0,0.8,0.4,1.2,1.2,1.2C35.8,7.8,36.2,7.4,36.2,6.6z"/>
		<path class="st0" d="M87.6,25.7c0,1.3-0.5,2.5-1.4,3.4s-2.1,1.4-3.4,1.4H71.6c-1.4,0-2.5-0.5-3.5-1.4c-0.9-1-1.4-2.1-1.4-3.4V6.4
			c0-1.4,0.5-2.5,1.4-3.5c0.9-1,2.1-1.4,3.5-1.4c1.3,0,2.5,0.5,3.4,1.4c0.9,1,1.4,2.1,1.4,3.5v5.3h6.3c1.3,0,2.5,0.5,3.4,1.4
			s1.4,2.1,1.4,3.5V25.7z M70.8,5.3c0-0.3-0.1-0.6-0.4-0.8c-0.2-0.2-0.5-0.3-0.8-0.3c-0.8,0-1.2,0.4-1.2,1.1c0,0.8,0.4,1.2,1.2,1.2
			c0.3,0,0.6-0.1,0.8-0.4S70.8,5.6,70.8,5.3z M70.8,25.3V8.2c0-0.8-0.4-1.2-1.2-1.2c-0.8,0-1.2,0.4-1.2,1.2v17.2
			c0,0.8,0.4,1.2,1.2,1.2c0.3,0,0.6-0.1,0.9-0.4C70.6,25.9,70.8,25.7,70.8,25.3z"/>
		<path class="st0" d="M120,24.2c0.3,0.6,0.4,1.1,0.4,1.8c0,1.2-0.5,2.3-1.5,3.2c-1,0.9-2.1,1.4-3.4,1.4H96.2
			c-1.3,0-2.4-0.5-3.3-1.5s-1.4-2.1-1.4-3.4c0-0.6,0.1-1.1,0.4-1.6l9.1-19.2c1-2.2,2.5-3.2,4.6-3.2c1.9,0,3.4,1.1,4.6,3.2L120,24.2z
			 M103.3,8.9c0.1-0.2,0.1-0.3,0.1-0.5c0-0.8-0.4-1.2-1.2-1.2c-0.5,0-0.9,0.2-1.1,0.7L93.5,25c-0.1,0.2-0.1,0.3-0.1,0.5
			c0,0.7,0.4,1.1,1.1,1.1c0.5,0,0.9-0.2,1.1-0.7L103.3,8.9z M104.8,5.5c0-0.8-0.4-1.2-1.2-1.2c-0.3,0-0.6,0.1-0.8,0.4
			c-0.2,0.2-0.4,0.5-0.4,0.9c0,0.8,0.4,1.2,1.2,1.2C104.5,6.7,104.8,6.3,104.8,5.5z"/>
		<path class="st0" d="M149.4,20.8c0,2.7-1,4.9-2.9,6.9s-4.2,2.9-6.9,2.9h-11.5c-1.3,0-2.5-0.5-3.5-1.4c-1-1-1.5-2.1-1.5-3.4V6.4
			c0-1.4,0.5-2.5,1.5-3.5c1-1,2.1-1.4,3.5-1.4l4.1,0c2.7,0,4.9,1,6.8,2.9s2.8,4.2,2.8,6.9c2.2,0.4,4,1.5,5.4,3.3
			C148.7,16.4,149.4,18.5,149.4,20.8z M127.3,5.3c0-0.7-0.4-1.1-1.1-1.1S125,4.6,125,5.3c0,0.8,0.4,1.2,1.1,1.2S127.3,6.1,127.3,5.3
			z M127.4,25.3V8.2c0-0.8-0.4-1.2-1.1-1.2c-0.8,0-1.2,0.4-1.2,1.2v17.2c0,0.3,0.1,0.6,0.4,0.8c0.2,0.2,0.5,0.4,0.8,0.4
			C127,26.5,127.4,26.1,127.4,25.3z"/>
		<path class="st0" d="M172.3,20.4c0,2.8-1,5.2-2.9,7.1c-2,2-4.3,3-7.1,3H157c-1.4,0-2.5-0.5-3.4-1.4c-0.9-1-1.4-2.1-1.4-3.4
			c0-1.4,0.5-2.5,1.4-3.5c0.9-0.9,2-1.4,3.4-1.4h1.6c-1.9-0.7-3.4-1.8-4.6-3.5c-1.2-1.7-1.8-3.6-1.8-5.7c0-2.8,1-5.1,3-7.1
			c2-2,4.3-3,7.1-3h4c1.4,0,2.5,0.5,3.5,1.4s1.4,2.1,1.4,3.5c0,1.3-0.5,2.5-1.4,3.4s-2.1,1.4-3.5,1.4h-1.4c2.2,0.6,3.9,1.7,5.3,3.3
			C171.6,16.3,172.3,18.2,172.3,20.4z M160.4,16.9c-1.3-0.2-2.3-0.7-3.1-1.6c-0.8-0.9-1.2-2.1-1.2-3.4c0-0.9,0.2-1.8,0.7-2.6
			c0.1-0.2,0.2-0.4,0.2-0.6c0-0.3-0.1-0.6-0.4-0.8c-0.2-0.2-0.5-0.3-0.8-0.3c-0.4,0-0.8,0.2-1,0.6c-0.7,1.2-1,2.4-1,3.7
			c0,1.8,0.6,3.5,1.8,4.8c1.2,1.4,2.7,2.2,4.5,2.4c0.8,0.1,1.3-0.3,1.3-1.2C161.4,17.4,161,17,160.4,16.9z M156,25.7
			c0-0.8-0.4-1.2-1.1-1.2c-0.7,0-1.1,0.4-1.1,1.2s0.4,1.2,1.1,1.2C155.6,26.9,156,26.5,156,25.7z M158.4,6.6c0-0.8-0.4-1.2-1.2-1.2
			s-1.2,0.4-1.2,1.2c0,0.8,0.4,1.2,1.2,1.2S158.4,7.4,158.4,6.6z"/>
	</g>
</g>
</svg>
