<?xml version="1.0" encoding="utf-8"?>
<!-- Generator: Adobe Illustrator 27.0.0, SVG Export Plug-In . SVG Version: 6.00 Build 0)  -->
<svg version="1.1" id="Layer_1" xmlns="http://www.w3.org/2000/svg" xmlns:xlink="http://www.w3.org/1999/xlink" x="0px" y="0px"
	 viewBox="0 0 150 150" style="enable-background:new 0 0 150 150;" xml:space="preserve">
<g>
	<g>
		<g>
			<path d="M139.9,9.7c0,16.3,0,32.2,0,48.1c-36.3,0-72.2,0-108.5,0c0,27.7,0,54.7,0,82.4c-6.9,0-13.9,0-20.8,0c0-0.4,0-1.2,0-2
				C10.1,96.6,10.1,55,10.1,13c0-3.3,0-3.3,3.3-3.3c41.2,0,82.4,0,123.2,0C137.8,9.7,138.6,9.7,139.9,9.7z M118.2,30.5
				c-29.4,0-58.3,0-87.3,0c0,2.4,0,4.5,0,6.5c29,0,58.3,0,87.3,0C118.2,34.6,118.2,32.6,118.2,30.5z"/>
			<path d="M37.1,140.3c0-6.9,0-13.9,0-21.2c26.9,0,53.8,0,81.2,0c0-2.4,0-4.5,0-6.9c-26.9,0-53.8,0-81.2,0c0-15.9,0-31.8,0-47.7
				c34.3,0,68.1,0,102.4,0c0,6.9,0,13.5,0,20.8c-26.9,0-54.2,0-81.2,0c0,2,0,4.1,0,6.5c26.9,0,53.8,0,81.2,0c0,16.3,0,32.2,0,48.5
				C105.6,140.3,71.3,140.3,37.1,140.3z"/>
		</g>
	</g>
</g>
</svg>
