<?xml version="1.0" encoding="utf-8"?>
<!-- Generator: Adobe Illustrator 27.0.0, SVG Export Plug-In . SVG Version: 6.00 Build 0)  -->
<svg version="1.1" id="Layer_1" xmlns="http://www.w3.org/2000/svg" xmlns:xlink="http://www.w3.org/1999/xlink" x="0px" y="0px"
	 viewBox="0 0 150 150" style="enable-background:new 0 0 150 150;" xml:space="preserve">
<style type="text/css">
	.st0{fill:#FFFFFF;}
</style>
<g>
	
		<image style="overflow:visible;opacity:0.2;" width="950" height="950" xlink:href="ACBC40E1C4AA3118.png"  transform="matrix(1 0 0 1 -370 -220)">
	</image>
	<g>
		
			<image style="overflow:visible;opacity:0.75;" width="90" height="90" xlink:href="ACBC40E1C4AA311B.png"  transform="matrix(1 0 0 1 60 10)">
		</image>
		<g>
			<g>
				<g>
					<g>
						<path class="st0" d="M134.5,25.3c0,7.4,0,14.7,0,21.9c-16.5,0-32.9,0-49.4,0c0,12.6,0,24.9,0,37.5c-3.2,0-6.3,0-9.5,0
							c0-0.2,0-0.5,0-0.9c-0.2-18.9-0.2-37.9-0.2-57c0-1.4,0-1.4,1.4-1.4c18.7,0,37.5,0,56.1,0C133.6,25.3,134,25.3,134.5,25.3z
							 M124.7,34.8c-13.3,0-26.6,0-39.7,0c0,1.1,0,2.1,0,3c13.2,0,26.6,0,39.7,0C124.7,36.6,124.7,35.7,124.7,34.8z"/>
						<path class="st0" d="M87.7,84.7c0-3.2,0-6.3,0-9.6c12.3,0,24.5,0,37,0c0-1.1,0-2.1,0-3.2c-12.3,0-24.5,0-37,0
							c0-7.2,0-14.5,0-21.7c15.6,0,31,0,46.6,0c0,3.2,0,6.1,0,9.5c-12.3,0-24.7,0-37,0c0,0.9,0,1.9,0,3c12.3,0,24.5,0,37,0
							c0,7.4,0,14.7,0,22.1C118.9,84.7,103.3,84.7,87.7,84.7z"/>
					</g>
				</g>
			</g>
		</g>
	</g>
</g>
</svg>
