<?xml version="1.0" encoding="utf-8"?>
<!-- Generator: Adobe Illustrator 27.0.0, SVG Export Plug-In . SVG Version: 6.00 Build 0)  -->
<svg version="1.1" id="Layer_1" xmlns="http://www.w3.org/2000/svg" xmlns:xlink="http://www.w3.org/1999/xlink" x="0px" y="0px"
	 viewBox="0 0 174 59.3" style="enable-background:new 0 0 174 59.3;" xml:space="preserve">
<g>
	<path d="M58.1,1.4c0,7.1,0,13.9,0,20.8c-15.7,0-31.2,0-46.9,0c0,12,0,23.6,0,35.6c-3,0-6,0-9,0c0-0.2,0-0.5,0-0.9C2,39,2,21,2,2.8
		c0-1.4,0-1.4,1.4-1.4c17.8,0,35.6,0,53.3,0C57.2,1.4,57.6,1.4,58.1,1.4z M48.7,10.4c-12.7,0-25.2,0-37.7,0c0,1.1,0,1.9,0,2.8
		c12.5,0,25.2,0,37.7,0C48.7,12.2,48.7,11.3,48.7,10.4z"/>
	<path d="M13.6,57.9c0-3,0-6,0-9.2c11.6,0,23.3,0,35.1,0c0-1.1,0-1.9,0-3c-11.6,0-23.3,0-35.1,0c0-6.9,0-13.8,0-20.6
		c14.8,0,29.5,0,44.3,0c0,3,0,5.8,0,9c-11.6,0-23.5,0-35.1,0c0,0.9,0,1.8,0,2.8c11.6,0,23.3,0,35.1,0c0,7.1,0,13.9,0,21
		C43.3,57.9,28.5,57.9,13.6,57.9z"/>
</g>
</svg>
