<?xml version="1.0" encoding="utf-8"?>
<!-- Generator: Adobe Illustrator 27.0.0, SVG Export Plug-In . SVG Version: 6.00 Build 0)  -->
<svg version="1.1" id="Layer_1" xmlns="http://www.w3.org/2000/svg" xmlns:xlink="http://www.w3.org/1999/xlink" x="0px" y="0px"
	 viewBox="0 0 68 46" style="enable-background:new 0 0 68 46;" xml:space="preserve">
<style type="text/css">
	.st0{fill:#FFFFFF;}
	.st1{fill-rule:evenodd;clip-rule:evenodd;fill:#4C40F7;}
</style>
<g>
	<circle class="st0" cx="45.5" cy="23" r="22.5"/>
	<g>
		<path class="st1" d="M22.9,1.3v43.3H0.7V1.3H22.9z"/>
		<g>
			<path class="st0" d="M67.3,1.3c0,5.5,0,10.7,0,16c-12,0-24,0-36,0c0,9.2,0,18.1,0,27.3c-2.4,0-4.6,0-7,0c0-0.1,0-0.4,0-0.7
				C24.2,30,24.2,16.3,24.2,2.3c0-1,0-1,1-1c13.6,0,27.3,0,40.9,0C66.7,1.3,66.9,1.3,67.3,1.3z M60.2,8.3c-9.8,0-19.3,0-28.9,0
				c0,0.7,0,1.5,0,2.2c9.6,0,19.3,0,28.9,0C60.2,9.6,60.2,8.9,60.2,8.3z"/>
			<path class="st0" d="M33.2,44.6c0-2.4,0-4.6,0-7c8.9,0,17.8,0,27,0c0-0.7,0-1.5,0-2.4c-8.9,0-17.8,0-27,0c0-5.3,0-10.5,0-15.9
				c11.4,0,22.5,0,33.9,0c0,2.4,0,4.4,0,7c-8.9,0-17.9,0-27,0c0,0.7,0,1.3,0,2.2c8.9,0,17.8,0,27,0c0,5.5,0,10.7,0,16.2
				C55.9,44.6,44.6,44.6,33.2,44.6z"/>
		</g>
	</g>
</g>
</svg>
