<?xml version="1.0" encoding="utf-8"?>
<!-- Generator: Adobe Illustrator 27.0.0, SVG Export Plug-In . SVG Version: 6.00 Build 0)  -->
<svg version="1.1" id="Layer_1" xmlns="http://www.w3.org/2000/svg" xmlns:xlink="http://www.w3.org/1999/xlink" x="0px" y="0px"
	 viewBox="0 0 174 32" style="enable-background:new 0 0 174 32;" xml:space="preserve">
<g>
	<g>
		<g>
			<path d="M68.7,0c0,4,0,7.9,0,11.8c-8.9,0-17.7,0-26.6,0c0,6.8,0,13.4,0,20.2c-1.7,0-3.4,0-5.1,0c0-0.1,0-0.3,0-0.5
				c-0.1-10.2-0.1-20.4-0.1-30.7c0-0.8,0-0.8,0.8-0.8c10.1,0,20.2,0,30.2,0C68.2,0,68.4,0,68.7,0z M63.4,5.1c-7.2,0-14.3,0-21.4,0
				c0,0.6,0,1.1,0,1.6c7.1,0,14.3,0,21.4,0C63.4,6.1,63.4,5.6,63.4,5.1z"/>
			<path d="M43.5,32c0-1.7,0-3.4,0-5.2c6.6,0,13.2,0,19.9,0c0-0.6,0-1.1,0-1.7c-6.6,0-13.2,0-19.9,0c0-3.9,0-7.8,0-11.7
				c8.4,0,16.7,0,25.1,0c0,1.7,0,3.3,0,5.1c-6.6,0-13.3,0-19.9,0c0,0.5,0,1,0,1.6c6.6,0,13.2,0,19.9,0c0,4,0,7.9,0,11.9
				C60.3,32,51.9,32,43.5,32z"/>
		</g>
	</g>
	<g>
		<g>
			<path d="M83,3.4h1.1v0.1l1,1v5.2H83v2.2h-6.5v6.5h-3.1l-1-1h-0.1V1.2H82v0.1l1,1V3.4z M81.5,8.2H75V3.9h6.5V8.2h2.2V3.9h-2.2V1.8
				h-8.6v15.1H75v-6.5h6.5V8.2z M76.6,7.7H81V5.5h-4.4V7.7z"/>
			<path d="M87.5,17.4h-0.1V1.2h3.2v0.1l1,1v16h-3.1L87.5,17.4z M90.1,16.8V1.8H88v15.1H90.1z"/>
			<path d="M104.6,12h1.1v0.1l1,1v5.2h-3.1l-1-1h-0.1v-3.3h-1l-1-1h-0.1v-1.1h-0.1v2.2h-2.2v4.3H95l-1-1h-0.1V12H96V9.8h2.2V9.8h-1
				l-1-1H96V7.6h-1l-1-1h-0.1V1.2h3.2v0.1l1,1v3.2h1.1v0.1l1,1v1h0.1V5.5h2.2V1.2h3.2v0.1l1,1v5.2h-2.2v2.2h-2.1v0.1h1.1V10l1,1V12z
				 M105.2,16.8v-4.3H103v-2.1h-2.2V8.2h-2.2V6.1h-2.1V1.8h-2.2v4.3h2.2v2.2h2.1v2.2h2.2v2.1h2.2v4.3H105.2z M94.4,12.5v4.3h2.2
				v-4.3H94.4z M96.6,10.4v2.1h2.1v-2.1H96.6z M103,8.2V6.1h-2.2v2.2H103z M105.2,6.1V1.8H103v4.3H105.2z"/>
			<path d="M113.2,14.1h7.6v0.1l1,1v3.1h-11.7l-1-1h-0.1V1.2h11.8v0.1l1,1v3.1h-8.6v2.2h7.6v0.1l1,1v3.1h-8.6V14.1z M120.2,16.8
				v-2.2h-8.6v-4.3h8.6V8.2h-8.6V3.9h8.6V1.8h-10.8v15.1H120.2z"/>
			<path d="M128.3,14.1h7.6v0.1l1,1v3.1h-11.7l-1-1H124V1.2h3.2v0.1l1,1V14.1z M135.3,16.8v-2.2h-8.6V1.8h-2.2v15.1H135.3z"/>
		</g>
		<g>
			<path d="M78.3,25.6h0.6v0.1l0.6,0.6v2.9h-1.2v1.2h-4.1l-0.6-0.6h-0.1v-0.6H73l-0.6-0.6h-0.1v-1.8h1.8v0.1l0.6,0.6V28h2.4v-1.2h-3
				l-0.6-0.6h-0.1v-0.6H73L72.4,25h-0.1v-3h1.2v-1.2h4.2v0.1l0.6,0.6V22h0.6v0.1l0.6,0.6v1.7h-1.7l-0.6-0.6h-0.1v-0.6h-2.4v1.2h3
				v0.1l0.6,0.6V25.6z M78.6,28.3v-2.4h-1.2v-1.2h-3.6v-2.4h-1.2v2.4h1.2v1.2h3.6v2.4H78.6z M73.8,28.3v-1.2h-1.2v1.2H73.8v1.2h3.6
				v-1.2H73.8z M77.4,22.3v1.2h1.2v-1.2H77.4v-1.2h-3.6v1.2H77.4z"/>
			<path d="M83.1,28h2.4v-1.2h1.8v0.1l0.6,0.6v1.7h-1.2v1.2h-4.1L82,29.8h-0.1v-0.6h-0.6l-0.6-0.6h-0.1V22h1.2v-1.2h4.2v0.1l0.6,0.6
				V22h0.6v0.1l0.6,0.6v1.7h-1.7l-0.6-0.6h-0.1v-0.6h-2.4V28z M82.2,28.3v-6H81v6H82.2v1.2h3.6v-1.2H82.2z M85.8,22.3v1.2H87v-1.2
				H85.8v-1.2h-3.6v1.2H85.8z M87,28.3v-1.2h-1.2v1.2H87z"/>
			<path d="M89.2,29.8L89.2,29.8l-0.1-9h1.8v0.1l0.6,0.6v8.9h-1.7L89.2,29.8z M90.6,29.5v-8.4h-1.2v8.4H90.6z"/>
			<path d="M95.1,28h4.2v0.1l0.6,0.6v1.7h-6.5l-0.6-0.6h-0.1v-9h6.6v0.1l0.6,0.6v1.7h-4.8v1.2h4.2v0.1l0.6,0.6v1.7h-4.8V28z
				 M99,29.5v-1.2h-4.8v-2.4H99v-1.2h-4.8v-2.4H99v-1.2h-6v8.4H99z"/>
			<path d="M105.9,24.4L105.9,24.4l0-3.6h1.8v0.1l0.6,0.6v8.9h-1.7l-0.6-0.6h-0.1v-3h-0.6l-0.6-0.6h-0.1v-0.6h-0.6l-0.6-0.6h-0.1
				v-0.6h0v6h-1.7l-0.6-0.6h-0.1v-9h1.8v0.1l0.6,0.6V22h0.6v0.1l0.6,0.6v0.6h0.6v0.1l0.6,0.6V24.4z M107.4,29.5v-8.4h-1.2v3.6H105
				v-1.2h-1.2v-1.2h-1.2v-1.2h-1.2v8.4h1.2v-6h1.2v1.2h1.2v1.2h1.2v3.6H107.4z"/>
			<path d="M109.6,22.6L109.6,22.6l-0.1-1.8h6.6v0.1l0.6,0.6v1.7h-2.4v7.2h-1.7l-0.6-0.6h-0.1v-6.6h-1.8L109.6,22.6z M115.8,22.3
				v-1.2h-6v1.2h2.4v7.2h1.2v-7.2H115.8z"/>
			<path d="M118,29.8L118,29.8l-0.1-9h1.8v0.1l0.6,0.6v8.9h-1.7L118,29.8z M119.4,29.5v-8.4h-1.2v8.4H119.4z"/>
			<path d="M127.5,25.6h0.6v0.1l0.6,0.6v2.9h-1.2v1.2h-4.1l-0.6-0.6h-0.1v-0.6h-0.6l-0.6-0.6h-0.1v-1.8h1.8v0.1l0.6,0.6V28h2.4v-1.2
				h-3l-0.6-0.6h-0.1v-0.6h-0.6l-0.6-0.6h-0.1v-3h1.2v-1.2h4.2v0.1l0.6,0.6V22h0.6v0.1l0.6,0.6v1.7h-1.7l-0.6-0.6h-0.1v-0.6h-2.4
				v1.2h3v0.1l0.6,0.6V25.6z M127.8,28.3v-2.4h-1.2v-1.2H123v-2.4h-1.2v2.4h1.2v1.2h3.6v2.4H127.8z M123,28.3v-1.2h-1.2v1.2H123v1.2
				h3.6v-1.2H123z M126.6,22.3v1.2h1.2v-1.2H126.6v-1.2H123v1.2H126.6z"/>
			<path d="M130,22.6L130,22.6l-0.1-1.8h6.6v0.1l0.6,0.6v1.7h-2.4v7.2h-1.7l-0.6-0.6h-0.1v-6.6h-1.8L130,22.6z M136.2,22.3v-1.2h-6
				v1.2h2.4v7.2h1.2v-7.2H136.2z"/>
		</g>
	</g>
</g>
<text transform="matrix(1 0 0 1 40.5712 48.5319)"><tspan x="0" y="0" style="font-family:'SFPixelateShaded'; font-size:14.4852px;">PIXEL</tspan><tspan x="0" y="17.4" style="font-family:'SFPixelateShaded'; font-size:14.4852px;">SCIENTIST</tspan></text>
</svg>
