<?xml version="1.0" encoding="utf-8"?>
<!-- Generator: Adobe Illustrator 27.0.0, SVG Export Plug-In . SVG Version: 6.00 Build 0)  -->
<svg version="1.1" id="Layer_1" xmlns="http://www.w3.org/2000/svg" xmlns:xlink="http://www.w3.org/1999/xlink" x="0px" y="0px"
	 viewBox="0 0 120 120" style="enable-background:new 0 0 120 120;" xml:space="preserve">
<style type="text/css">
	.st0{fill:#3C39F0;}
	.st1{fill:#FFFFFF;}
</style>
<g>
	<g>
		<path class="st0" d="M114.4,5.2c0,13.9,0,27,0,40.4c-30.3,0-60.6,0-90.9,0c0,23.2,0,45.7,0,68.9c-6.1,0-11.6,0-17.7,0
			c0-0.3,0-1,0-1.8C5.6,77.7,5.6,43.1,5.6,7.7c0-2.5,0-2.5,2.5-2.5c34.3,0,68.9,0,103.3,0C112.9,5.2,113.4,5.2,114.4,5.2z
			 M96.5,22.9c-24.7,0-48.7,0-73,0c0,1.8,0,3.8,0,5.6c24.2,0,48.7,0,73,0C96.5,26.2,96.5,24.4,96.5,22.9z"/>
		<path class="st1" d="M28.3,114.5c0-6.1,0-11.6,0-17.7c22.5,0,44.9,0,68.2,0c0-1.8,0-3.8,0-6.1c-22.5,0-44.9,0-68.2,0
			c0-13.4,0-26.5,0-40.1c28.8,0,56.8,0,85.6,0c0,6.1,0,11.1,0,17.7c-22.5,0-45.2,0-68.2,0c0,1.8,0,3.3,0,5.6c22.5,0,44.9,0,68.2,0
			c0,13.9,0,27,0,40.9C85.6,114.5,57.1,114.5,28.3,114.5z"/>
	</g>
</g>
</svg>
